<svg width="128" height="45" viewBox="0 0 128 45" fill="none" xmlns="http://www.w3.org/2000/svg">
<rect x="1" y="1" width="126" height="43" rx="4" fill="#131215" stroke="white" stroke-width="2"/>
<rect x="12" y="11" width="24" height="24" rx="3" fill="white"/>
<path d="M43.992 31V14.2H47.208L54.36 26.056H52.656L59.688 14.2H62.88L62.928 31H59.28L59.256 19.792H59.928L54.312 29.224H52.56L46.824 19.792H47.64V31H43.992ZM78.4339 14.2H82.3219V31H78.4339V14.2ZM70.8019 31H66.9139V14.2H70.8019V31ZM78.7219 24.112H70.5139V20.824H78.7219V24.112ZM85.0967 31V28.48L91.5767 22.36C92.0887 21.896 92.4647 21.48 92.7047 21.112C92.9447 20.744 93.1047 20.408 93.1847 20.104C93.2807 19.8 93.3287 19.52 93.3287 19.264C93.3287 18.592 93.0967 18.08 92.6327 17.728C92.1847 17.36 91.5207 17.176 90.6407 17.176C89.9367 17.176 89.2807 17.312 88.6727 17.584C88.0807 17.856 87.5767 18.28 87.1607 18.856L84.3287 17.032C84.9687 16.072 85.8647 15.312 87.0167 14.752C88.1687 14.192 89.4967 13.912 91.0007 13.912C92.2487 13.912 93.3367 14.12 94.2647 14.536C95.2087 14.936 95.9367 15.504 96.4487 16.24C96.9767 16.976 97.2407 17.856 97.2407 18.88C97.2407 19.424 97.1687 19.968 97.0247 20.512C96.8967 21.04 96.6247 21.6 96.2087 22.192C95.8087 22.784 95.2167 23.448 94.4327 24.184L89.0567 29.248L88.3127 27.832H97.7927V31H85.0967ZM106.597 31.288C105.221 31.288 103.989 30.952 102.901 30.28C101.813 29.592 100.957 28.6 100.333 27.304C99.7089 26.008 99.3969 24.44 99.3969 22.6C99.3969 20.76 99.7089 19.192 100.333 17.896C100.957 16.6 101.813 15.616 102.901 14.944C103.989 14.256 105.221 13.912 106.597 13.912C107.989 13.912 109.221 14.256 110.293 14.944C111.381 15.616 112.237 16.6 112.861 17.896C113.485 19.192 113.797 20.76 113.797 22.6C113.797 24.44 113.485 26.008 112.861 27.304C112.237 28.6 111.381 29.592 110.293 30.28C109.221 30.952 107.989 31.288 106.597 31.288ZM106.597 28C107.253 28 107.821 27.816 108.301 27.448C108.797 27.08 109.181 26.496 109.453 25.696C109.741 24.896 109.885 23.864 109.885 22.6C109.885 21.336 109.741 20.304 109.453 19.504C109.181 18.704 108.797 18.12 108.301 17.752C107.821 17.384 107.253 17.2 106.597 17.2C105.957 17.2 105.389 17.384 104.893 17.752C104.413 18.12 104.029 18.704 103.741 19.504C103.469 20.304 103.333 21.336 103.333 22.6C103.333 23.864 103.469 24.896 103.741 25.696C104.029 26.496 104.413 27.08 104.893 27.448C105.389 27.816 105.957 28 106.597 28Z" fill="white"/>
<path d="M24 14.8C24 14.3582 24.3589 13.9963 24.799 14.0355C26.2971 14.169 27.7425 14.6764 29.0001 15.5168C30.4802 16.5057 31.6337 17.9113 32.3149 19.5558C32.9961 21.2004 33.1743 23.01 32.8271 24.7558C32.4798 26.5016 31.6226 28.1053 30.364 29.364C29.1053 30.6226 27.5016 31.4798 25.7558 31.8271C24.01 32.1743 22.2004 31.9961 20.5558 31.3149C18.9113 30.6337 17.5057 29.4802 16.5168 28.0001C15.6764 26.7425 15.169 25.2971 15.0355 23.799C14.9963 23.3589 15.3582 23 15.8 23L23.2 23C23.6418 23 24 22.6418 24 22.2L24 14.8Z" fill="#131215"/>
</svg>
